# xmcd
#
# Track frame offsets: 
#        150
#        18218
#        36611
#        53474
#        77790
#        94246
#        110958
#        128243
#        147636
#        164247
#        184278
#        215373
#        240992
#        261209
#        282768
#        306976
#
# Disc length: 4329 seconds
#
# Revision: 2
# Processed by: cddbd v1.5.1PL2 Copyright (c) Steve Scherf et al.
# Submitted via: ExactAudioCopy v0.90b4
#
DISCID=f210e710
DTITLE=Kenny Loggins - Yesterday, Today, Tomorrow
DYEAR=1997
DGENRE=Country
TTITLE0=This Is It
TTITLE1=Whenever I Call You "Friend"
TTITLE2=Footloose
TTITLE3=Heart To Heart
TTITLE4=Danger Zone
TTITLE5=Meet Me Half Way
TTITLE6=I'm Alright
TTITLE7=Return To Pooh Corner
TTITLE8=Don't Fight It
TTITLE9=Forever
TTITLE10=Conviction Of The Heart
TTITLE11=The Real Thing
TTITLE12=For The First Time
TTITLE13=Celebrate Me Home
TTITLE14=The Rest Of Your Life
TTITLE15=The More We Try
EXTD=
EXTT0=
EXTT1=
EXTT2=
EXTT3=
EXTT4=
EXTT5=
EXTT6=
EXTT7=
EXTT8=
EXTT9=
EXTT10=
EXTT11=
EXTT12=
EXTT13=
EXTT14=
EXTT15=
PLAYORDER=
